<svg xmlns="http://www.w3.org/2000/svg" viewBox="0 0 256 256" fill="none" role="img" aria-labelledby="title desc">
  <title id="title">Meeting Room simple logo concept: Split View</title>
  <desc id="desc">A simplified split pane showing the app's chat area on the left and terminal pane on the right.</desc>
  <rect x="24" y="24" width="208" height="208" rx="34" fill="#F7F9FC"/>
  <rect x="24.75" y="24.75" width="206.5" height="206.5" rx="33.25" stroke="#10324A" stroke-width="1.5"/>
  <rect x="46" y="44" width="164" height="16" rx="8" fill="#F7F9FC" stroke="#10324A" stroke-width="2"/>
  <rect x="54" y="48" width="18" height="8" rx="4" fill="#10324A"/>
  <rect x="78" y="48" width="18" height="8" rx="4" fill="#F7F9FC" stroke="#10324A" stroke-width="2"/>
  <rect x="102" y="48" width="18" height="8" rx="4" fill="#F7F9FC" stroke="#10324A" stroke-width="2"/>
  <rect x="46" y="76" width="72" height="126" rx="20" fill="#F7F9FC" stroke="#10324A" stroke-width="2.5"/>
  <rect x="138" y="76" width="72" height="126" rx="20" fill="#F7F9FC" stroke="#10324A" stroke-width="2.5"/>
  <rect x="58" y="92" width="44" height="22" rx="11" fill="#10324A"/>
  <rect x="64" y="122" width="40" height="22" rx="11" fill="#F7F9FC" stroke="#10324A" stroke-width="3"/>
  <rect x="58" y="152" width="50" height="22" rx="11" fill="#F7F9FC" stroke="#10324A" stroke-width="3"/>
  <path d="M151 102h14m-14 0 5-5m-5 5 5 5" stroke="#10324A" stroke-width="3" stroke-linecap="round" stroke-linejoin="round"/>
  <rect x="172" y="98" width="20" height="6" rx="3" fill="#10324A"/>
  <rect x="151" y="124" width="39" height="6" rx="3" fill="#10324A"/>
  <rect x="151" y="138" width="28" height="6" rx="3" fill="#10324A"/>
  <rect x="151" y="162" width="22" height="6" rx="3" fill="#10324A"/>
  <rect x="176" y="159" width="12" height="10" rx="2.5" fill="#10324A"/>
</svg>
