<svg xmlns="http://www.w3.org/2000/svg" viewBox="0 0 256 256" fill="none" role="img" aria-labelledby="title desc">
  <title id="title">Meeting Room simple logo concept: Prompt Bubble</title>
  <desc id="desc">A minimal speech bubble merged with a terminal prompt, plus status pills that reference the Meeting Room interface.</desc>
  <rect x="24" y="24" width="208" height="208" rx="34" fill="#F7F9FC"/>
  <rect x="24.75" y="24.75" width="206.5" height="206.5" rx="33.25" stroke="#10324A" stroke-width="1.5"/>
  <rect x="52" y="50" width="28" height="10" rx="5" fill="#10324A"/>
  <rect x="86" y="50" width="28" height="10" rx="5" fill="#F7F9FC" stroke="#10324A" stroke-width="2"/>
  <rect x="120" y="50" width="28" height="10" rx="5" fill="#F7F9FC" stroke="#10324A" stroke-width="2"/>
  <path d="M66 82h95c16.57 0 30 13.43 30 30v20c0 16.57-13.43 30-30 30h-39l-22 20v-20H66c-16.57 0-30-13.43-30-30v-20c0-16.57 13.43-30 30-30Z" fill="#F7F9FC" stroke="#10324A" stroke-width="4"/>
  <path d="M71 122h18m-18 0 6-6m-6 6 6 6" stroke="#10324A" stroke-width="4" stroke-linecap="round" stroke-linejoin="round"/>
  <rect x="100" y="116" width="52" height="7" rx="3.5" fill="#10324A"/>
  <rect x="100" y="130" width="36" height="7" rx="3.5" fill="#10324A"/>
  <rect x="145" y="129" width="12" height="10" rx="2.5" fill="#10324A"/>
  <rect x="58" y="188" width="44" height="10" rx="5" fill="#F7F9FC" stroke="#10324A" stroke-width="2"/>
  <rect x="108" y="188" width="56" height="10" rx="5" fill="#10324A"/>
  <rect x="170" y="188" width="28" height="10" rx="5" fill="#F7F9FC" stroke="#10324A" stroke-width="2"/>
</svg>
