<svg xmlns="http://www.w3.org/2000/svg" viewBox="0 0 256 256" fill="none" role="img" aria-labelledby="title desc">
  <title id="title">Meeting Room simple logo concept: UI Card</title>
  <desc id="desc">A simplified app card showing status pills, stacked chat bubbles, and an input prompt, based on the Meeting Room interface.</desc>
  <rect x="24" y="24" width="208" height="208" rx="34" fill="#F7F9FC"/>
  <rect x="24.75" y="24.75" width="206.5" height="206.5" rx="33.25" stroke="#10324A" stroke-width="1.5"/>
  <rect x="48" y="48" width="42" height="12" rx="6" fill="#10324A"/>
  <rect x="96" y="48" width="34" height="12" rx="6" fill="#F7F9FC" stroke="#10324A" stroke-width="2"/>
  <rect x="136" y="48" width="26" height="12" rx="6" fill="#F7F9FC" stroke="#10324A" stroke-width="2"/>
  <rect x="48" y="80" width="132" height="40" rx="18" fill="#10324A"/>
  <circle cx="66" cy="100" r="4.5" fill="#F7F9FC"/>
  <rect x="78" y="93" width="76" height="5" rx="2.5" fill="#F7F9FC"/>
  <rect x="78" y="104" width="52" height="5" rx="2.5" fill="#F7F9FC"/>
  <rect x="76" y="128" width="132" height="40" rx="18" fill="#F7F9FC" stroke="#10324A" stroke-width="3"/>
  <circle cx="94" cy="148" r="4.5" fill="#10324A"/>
  <rect x="106" y="141" width="76" height="5" rx="2.5" fill="#10324A"/>
  <rect x="106" y="152" width="58" height="5" rx="2.5" fill="#10324A"/>
  <rect x="48" y="186" width="160" height="22" rx="11" fill="#F7F9FC" stroke="#10324A" stroke-width="2.5"/>
  <path d="M60 197.5h10m-10 0 4-4m-4 4 4 4" stroke="#10324A" stroke-width="2.4" stroke-linecap="round" stroke-linejoin="round"/>
  <rect x="82" y="194.5" width="70" height="6" rx="3" fill="#10324A"/>
  <rect x="158" y="193" width="15" height="9" rx="2.5" fill="#10324A"/>
</svg>
